<?xml version="1.0" standalone="no"?>
<!DOCTYPE svg PUBLIC "-//W3C//DTD SVG 20010904//EN"
 "http://www.w3.org/TR/2001/REC-SVG-20010904/DTD/svg10.dtd">
<svg version="1.0" xmlns="http://www.w3.org/2000/svg"
 width="1024.000000pt" height="1024.000000pt" viewBox="0 0 1024.000000 1024.000000"
 preserveAspectRatio="xMidYMid meet">
<metadata>
Created by potrace 1.11, written by Peter Selinger 2001-2013
</metadata>
<g transform="translate(0.000000,1024.000000) scale(0.100000,-0.100000)"
fill="#000000" stroke="none">
<path d="M380 8209 c-177 -35 -331 -187 -369 -367 -8 -39 -11 -778 -10 -2730
0 -2847 -2 -2721 45 -2819 17 -38 78 -120 108 -147 38 -33 100 -72 156 -97
l55 -24 3540 -3 c2522 -2 3555 1 3593 9 122 25 196 79 362 264 20 22 63 69 95
105 33 36 94 104 135 150 41 46 86 95 99 109 12 14 55 62 95 106 145 162 161
180 176 195 8 8 47 51 85 94 39 44 79 89 90 101 11 11 52 56 90 99 39 44 75
84 80 90 6 6 48 54 95 106 47 52 94 104 105 116 19 20 155 170 185 204 22 25
141 158 165 184 20 22 160 178 180 200 31 35 191 212 195 216 3 3 43 48 90
100 47 52 89 100 95 106 44 49 165 183 188 208 86 97 128 196 133 316 5 113
-34 238 -96 310 -12 14 -45 52 -73 85 -51 59 -123 139 -162 180 -11 12 -54 59
-95 105 -41 46 -80 88 -85 94 -6 6 -87 97 -180 201 -93 105 -179 199 -190 211
-11 11 -36 38 -55 61 -32 36 -145 162 -210 233 -14 15 -54 60 -90 100 -36 40
-76 84 -89 99 -39 43 -93 104 -141 157 -25 27 -81 90 -126 139 -45 50 -127
142 -184 205 -56 63 -126 140 -154 170 -28 30 -69 75 -90 100 -22 25 -76 85
-120 134 -97 106 -81 89 -186 206 -159 178 -221 238 -279 269 -125 66 183 61
-3691 60 -1969 -1 -3535 -5 -3560 -10z m2314 -3409 c314 -230 578 -369 893
-470 69 -22 135 -42 147 -45 145 -31 267 -55 314 -60 31 -4 67 -8 79 -10 165
-25 519 -20 712 10 20 3 65 10 101 16 219 34 528 136 750 248 156 78 252 137
438 268 96 68 179 125 182 126 4 1 77 -95 163 -213 l154 -215 -106 -78 c-133
-99 -333 -231 -431 -286 -76 -43 -336 -171 -346 -171 -3 0 -20 -6 -37 -14
-183 -83 -523 -176 -775 -211 -20 -3 -48 -8 -62 -10 -157 -27 -689 -27 -850
-1 -14 3 -59 10 -100 16 -141 23 -285 54 -375 80 -38 12 -78 23 -89 25 -22 5
-191 65 -265 95 -146 58 -331 150 -484 243 -105 64 -401 268 -435 302 -11 10
1 32 69 126 45 63 96 134 113 158 90 127 119 161 130 153 6 -5 56 -42 110 -82z"/>
</g>
</svg>
